<svg width="23" height="20" viewBox="0 0 23 20" fill="white" xmlns="http://www.w3.org/2000/svg">
<path fill-rule="evenodd" clip-rule="evenodd" d="M20.9409 5.68792C20.8814 5.68359 20.8155 5.68359 20.7462 5.68359H18.0149C15.7778 5.68359 13.8643 7.44465 13.8643 9.74008C13.8643 12.0355 15.7789 13.7966 18.0149 13.7966H20.7462C20.8155 13.7966 20.8814 13.7966 20.9431 13.7922C21.4029 13.7645 21.8369 13.5706 22.1642 13.2466C22.4916 12.9226 22.69 12.4906 22.7225 12.0312C22.7269 11.9663 22.7269 11.896 22.7269 11.8311V7.6491C22.7269 7.58419 22.7269 7.51388 22.7225 7.44898C22.69 6.98953 22.4916 6.55756 22.1642 6.23356C21.8369 5.90957 21.4029 5.71564 20.9431 5.68792M17.7758 10.8218C18.3513 10.8218 18.8175 10.3372 18.8175 9.74008C18.8175 9.14297 18.3513 8.65835 17.7758 8.65835C17.1992 8.65835 16.733 9.14297 16.733 9.74008C16.733 10.3372 17.1992 10.8218 17.7758 10.8218Z" fill="#FFFFFF"/>
<path fill-rule="evenodd" clip-rule="evenodd" d="M20.7439 15.4191C20.7813 15.4176 20.8186 15.425 20.8526 15.4405C20.8866 15.4561 20.9165 15.4795 20.9398 15.5088C20.9631 15.5381 20.9791 15.5725 20.9866 15.6092C20.9942 15.6458 20.9929 15.6837 20.983 15.7198C20.7667 16.49 20.4216 17.1477 19.8688 17.6994C19.0586 18.5107 18.0321 18.8688 16.7643 19.0397C15.5311 19.2052 13.9572 19.2052 11.969 19.2052H9.68434C7.69612 19.2052 6.12113 19.2052 4.88904 19.0397C3.62125 18.8688 2.59469 18.5096 1.78447 17.7005C0.975337 16.8903 0.616203 15.8637 0.44529 14.5959C0.279785 13.3628 0.279785 11.7888 0.279785 9.80061V9.67946C0.279785 7.69124 0.279785 6.11624 0.44529 4.88307C0.616203 3.61528 0.975337 2.58872 1.78447 1.77851C2.59469 0.969373 3.62125 0.610239 4.88904 0.439325C6.12221 0.274902 7.69612 0.274902 9.68434 0.274902H11.969C13.9572 0.274902 15.5322 0.274902 16.7643 0.440407C18.0321 0.61132 19.0586 0.970454 19.8688 1.77959C20.4216 2.33343 20.7667 2.99004 20.983 3.76024C20.9929 3.79633 20.9942 3.83425 20.9866 3.87092C20.9791 3.90758 20.9631 3.94196 20.9398 3.97126C20.9165 4.00056 20.8866 4.02395 20.8526 4.03953C20.8186 4.05512 20.7813 4.06246 20.7439 4.06096H18.0137C14.9448 4.06096 12.2405 6.48403 12.2405 9.74004C12.2405 12.996 14.9448 15.4191 18.0137 15.4191H20.7439ZM4.33627 4.60182C4.1211 4.60182 3.91475 4.6873 3.7626 4.83944C3.61045 4.99159 3.52497 5.19795 3.52497 5.41312C3.52497 5.62829 3.61045 5.83464 3.7626 5.98679C3.91475 6.13894 4.1211 6.22442 4.33627 6.22442H8.66319C8.87836 6.22442 9.08472 6.13894 9.23686 5.98679C9.38901 5.83464 9.47449 5.62829 9.47449 5.41312C9.47449 5.19795 9.38901 4.99159 9.23686 4.83944C9.08472 4.6873 8.87836 4.60182 8.66319 4.60182H4.33627Z" fill="#FFFFFF"/>
</svg>
