<svg xmlns="http://www.w3.org/2000/svg" version="1.1" xmlns:xlink="http://www.w3.org/1999/xlink" xmlns:svgjs="http://svgjs.dev/svgjs" width="128" height="128" viewBox="0 0 128 128"><g transform="matrix(0.8046875,0,0,0.8046875,12.337767633063663,12.337767633063663)"><svg viewBox="0 0 96 96" data-background-color="#ffffff" preserveAspectRatio="xMidYMid meet" height="128" width="128" xmlns="http://www.w3.org/2000/svg" xmlns:xlink="http://www.w3.org/1999/xlink"><g id="tight-bounds" transform="matrix(1,0,0,1,0.25950000000000273,0.25950000000000273)"><svg viewBox="0 0 95.481 95.481" height="95.481" width="95.481"><g><svg viewBox="0 0 95.481 95.481" height="95.481" width="95.481"><g><svg viewBox="0 0 95.481 95.481" height="95.481" width="95.481"><g id="textblocktransform"><svg viewBox="0 0 95.481 95.481" height="95.481" width="95.481" id="textblock"><g><svg viewBox="0 0 95.481 95.481" height="95.481" width="95.481"><g><svg viewBox="0 0 95.481 95.481" height="95.481" width="95.481"><g><svg xmlns:dc="http://purl.org/dc/elements/1.1/" xmlns:cc="http://creativecommons.org/ns#" xmlns:rdf="http://www.w3.org/1999/02/22-rdf-syntax-ns#" xmlns:svg="http://www.w3.org/2000/svg" xmlns="http://www.w3.org/2000/svg" xmlns:sodipodi="http://sodipodi.sourceforge.net/DTD/sodipodi-0.dtd" xmlns:inkscape="http://www.inkscape.org/namespaces/inkscape" version="1.1" x="0" y="0" viewBox="0 0 96 96" style="enable-background:new 0 0 96 96;" xml:space="preserve" height="95.481" width="95.481" class="icon-icon-0" data-fill-palette-color="accent" id="icon-0"><path d="M48 0A48 48 0 0 0 0 48 48 48 0 0 0 48 96 48 48 0 0 0 96 48 48 48 0 0 0 48 0M74.5 27C76.154 27 77.5 28.346 77.5 30 77.5 31.31 76.65 32.414 75.479 32.822V41.5C75.479 42.878 74.357 44 72.979 44H66.5V52H69C69.827 52 70.5 52.673 70.5 53.5V67.5C70.5 68.327 69.827 69 69 69H62C61.173 69 60.5 68.327 60.5 67.5V63H52.5V68H58A0.5 0.5 0 0 1 58 69H37A0.5 0.5 0 0 1 37 68H42.5V63H34.5V67.5C34.5 68.327 33.827 69 33 69H20C19.173 69 18.5 68.327 18.5 67.5V49.5C18.5 48.673 19.173 48 20 48H28.5V36.5C28.5 35.122 29.622 34 31 34H53.479V31.5C53.479 30.122 54.6 29 55.979 29H71.684A3 3 0 0 1 74.5 27M74.502 28.002C73.399 28.002 72.502 28.899 72.502 30.002 72.502 30.929 73.138 31.705 73.996 31.93A2.4 2.4 0 0 0 74.424 31.992C74.577 31.996 74.73 31.992 74.88 31.961 74.887 31.959 74.89 31.96 74.896 31.96A2.01 2.01 0 0 0 76.502 30.002C76.502 28.899 75.605 28.002 74.502 28.002M73.793 28.793C73.921 28.793 74.049 28.842 74.146 28.939L74.5 29.293 74.854 28.939A0.5 0.5 0 0 1 75.56 29.646L75.207 30 75.563 30.354A0.5 0.5 0 0 1 74.855 31.06L74.502 30.707 74.146 31.061A0.5 0.5 0 0 1 73.44 31.06 0.5 0.5 0 0 1 73.44 30.354L73.793 30 73.439 29.646A0.5 0.5 0 0 1 73.793 28.793M55.979 30C55.152 30 54.479 30.673 54.479 31.5V34.396C54.487 34.43 54.5 34.463 54.5 34.5S54.487 34.57 54.479 34.604V37.396C54.487 37.43 54.5 37.463 54.5 37.5S54.487 37.57 54.479 37.604V41.396C54.487 41.43 54.5 41.463 54.5 41.5S54.488 41.57 54.479 41.604V46.459L58.666 43.109A0.5 0.5 0 0 1 58.979 43H72.979C73.806 43 74.479 42.327 74.479 41.5V33A3 3 0 0 1 73.912 32.94L73.867 32.93C73.757 32.907 73.647 32.887 73.537 32.852 73.48 32.834 73.432 32.799 73.377 32.777 73.335 32.76 73.295 32.74 73.254 32.721 72.496 32.383 71.882 31.735 71.629 30.94 71.529 30.631 71.479 30.315 71.479 30zM63.084 34C63.174 34.006 63.262 34.036 63.338 34.09L66.195 36.09A0.503 0.503 0 0 1 66.195 36.91L63.338 38.91A0.5 0.5 0 0 1 62.55 38.498V34.498A0.503 0.503 0 0 1 63.084 34M31 35C30.173 35 29.5 35.673 29.5 36.5V48H31.5V37.5A0.5 0.5 0 0 1 32 37H53.479V35zM63.55 35.46V37.54L65.036 36.5zM32.5 38V41H53.479V38zM33.979 39A0.5 0.5 0 0 1 34.479 39.5 0.5 0.5 0 0 1 33.979 40 0.5 0.5 0 0 1 33.479 39.5 0.5 0.5 0 0 1 33.979 39M35.979 39A0.5 0.5 0 0 1 36.479 39.5 0.5 0.5 0 0 1 35.979 40 0.5 0.5 0 0 1 35.479 39.5 0.5 0.5 0 0 1 35.979 39M37.979 39A0.5 0.5 0 0 1 38.479 39.5 0.5 0.5 0 0 1 37.979 40 0.5 0.5 0 0 1 37.479 39.5 0.5 0.5 0 0 1 37.979 39M32.5 42V48H33C33.827 48 34.5 48.673 34.5 49.5V54H60.5V53.5C60.5 52.673 61.173 52 62 52H62.5V44H59.154L54.293 47.89A0.51 0.51 0 0 1 53.762 47.952 0.5 0.5 0 0 1 53.479 47.5V42zM45.033 44C45.123 44.006 45.211 44.036 45.287 44.09L50.287 47.59A0.498 0.498 0 0 1 50.287 48.408L45.287 51.908A0.5 0.5 0 0 1 44.77 51.943 0.5 0.5 0 0 1 44.5 51.5V44.5A0.5 0.5 0 0 1 45.033 44M63.5 44V52H65.5V44zM45.5 45.46V50.54L49.129 48zM20 49A0.5 0.5 0 0 0 19.5 49.5V64H33.5V49.5A0.5 0.5 0 0 0 33 49zM62 53A0.5 0.5 0 0 0 61.5 53.5V55H69.479C69.486 55 69.493 55.004 69.5 55.004V53.5A0.5 0.5 0 0 0 69 53zM24.748 54.002C24.838 54.008 24.926 54.038 25.002 54.092L28.572 56.592A0.498 0.498 0 0 1 28.572 57.408L25.002 59.908A0.5 0.5 0 0 1 24.482 59.943 0.5 0.5 0 0 1 24.215 59.5V54.5A0.5 0.5 0 0 1 24.748 54.002M34.5 55V57H60.5V55zM25.215 55.46V58.54L27.415 57zM69.5 55.997C69.493 55.996 69.486 56 69.479 56H61.5V65H69.5zM34.5 58V62H60.5V58zM64.898 58.73A0.25 0.25 0 0 1 65.03 58.775L66.486 59.795A0.25 0.25 0 0 1 66.486 60.205L65.03 61.225A0.25 0.25 0 0 1 64.637 61.02V58.98A0.25 0.25 0 0 1 64.898 58.73M47.5 59A1 1 0 0 1 48.5 60 1 1 0 0 1 47.5 61 1 1 0 0 1 46.5 60 1 1 0 0 1 47.5 59M43.5 63V68H51.5V63zM19.5 65V67.5A0.5 0.5 0 0 0 20 68H33A0.5 0.5 0 0 0 33.5 67.5V65zM26.5 65.969A0.5 0.5 0 0 1 27 66.469 0.5 0.5 0 0 1 26.5 66.969 0.5 0.5 0 0 1 26 66.469 0.5 0.5 0 0 1 26.5 65.969M61.5 66V67.5A0.5 0.5 0 0 0 62 68H69A0.5 0.5 0 0 0 69.5 67.5V66zM65.5 66.5A0.5 0.5 0 0 1 66 67 0.5 0.5 0 0 1 65.5 67.5 0.5 0.5 0 0 1 65 67 0.5 0.5 0 0 1 65.5 66.5" fill="#ffffff" stroke="none" data-fill-palette-color="accent"></path></svg></g></svg></g></svg></g></svg></g></svg></g><g></g></svg></g><defs></defs></svg><rect width="95.481" height="95.481" fill="none" stroke="none" visibility="hidden"></rect></g></svg></g></svg>